<svg width="20" height="20" viewBox="0 0 20 20" fill="none" xmlns="http://www.w3.org/2000/svg">
<path d="M10.7833 9.99997L15.3889 5.39441C15.4799 5.28813 15.5275 5.15142 15.5221 5.0116C15.5167 4.87178 15.4587 4.73915 15.3598 4.64021C15.2608 4.54127 15.1282 4.48331 14.9884 4.47791C14.8486 4.4725 14.7118 4.52006 14.6056 4.61108L10 9.21663L5.39446 4.60552C5.28984 4.50091 5.14796 4.44214 5.00001 4.44214C4.85207 4.44214 4.71018 4.50091 4.60557 4.60552C4.50095 4.71014 4.44218 4.85202 4.44218 4.99997C4.44218 5.14791 4.50095 5.2898 4.60557 5.39441L9.21668 9.99997L4.60557 14.6055C4.54741 14.6553 4.50018 14.7166 4.46683 14.7855C4.43349 14.8545 4.41475 14.9295 4.41179 15.006C4.40884 15.0826 4.42173 15.1589 4.44966 15.2301C4.47759 15.3014 4.51995 15.3662 4.5741 15.4203C4.62824 15.4745 4.69299 15.5168 4.76428 15.5448C4.83557 15.5727 4.91186 15.5856 4.98838 15.5826C5.06489 15.5797 5.13996 15.5609 5.20888 15.5276C5.27781 15.4942 5.3391 15.447 5.3889 15.3889L10 10.7833L14.6056 15.3889C14.7118 15.4799 14.8486 15.5274 14.9884 15.522C15.1282 15.5166 15.2608 15.4587 15.3598 15.3597C15.4587 15.2608 15.5167 15.1282 15.5221 14.9883C15.5275 14.8485 15.4799 14.7118 15.3889 14.6055L10.7833 9.99997Z" fill="black"/>
</svg>
